<svg width="25" height="25" viewBox="0 0 25 25" fill="none" xmlns="http://www.w3.org/2000/svg">
<path d="M17.0833 12.1667C17.0833 14.6667 14.9999 16.75 12.4999 16.8333C9.99992 16.8333 7.83325 14.8333 7.83325 12.1667C7.83325 9.58333 9.99992 7.5 12.4999 7.5C15.0833 7.5 17.0833 9.58333 17.0833 12.1667Z" fill="#EFC319"/>
<path d="M4.66667 12.8333H3.83333C3.33333 12.8333 3 12.5833 3 12.1666C3 11.7499 3.25 11.3333 3.75 11.3333H5.66667C6.08333 11.3333 6.33333 11.7499 6.33333 12.0833C6.33333 12.4999 6 12.8333 5.58333 12.8333C5.25 12.9166 5 12.8333 4.66667 12.8333Z" fill="#EFC319"/>
<path d="M20.25 12.8333H19.4166C19 12.8333 18.6675 12.5833 18.6675 12.1666C18.6675 11.6666 18.9175 11.3333 19.3341 11.3333H21.2508C21.6675 11.3333 22.0008 11.7499 21.9175 12.0833C21.9175 12.4999 21.585 12.8333 21.1683 12.8333C20.9166 12.9166 20.5833 12.8333 20.25 12.8333Z" fill="#EFC319"/>
<path d="M8.33333 7.1665C8.33333 7.49984 8.16667 7.74984 7.91667 7.83317C7.66667 7.9165 7.33333 7.9165 7.08333 7.74984C6.66667 7.33317 6.16667 6.9165 5.75 6.49984C5.41667 6.1665 5.41667 5.6665 5.75 5.4165C6.08333 5.1665 6.58333 5.1665 6.83333 5.4165L8.08333 6.6665C8.25 6.83317 8.33333 6.99984 8.33333 7.1665V7.1665Z" fill="#EFC319"/>
<path d="M13.25 4.33325V5.24992C13.25 5.66659 12.9167 5.91659 12.5 5.91659C12.0833 5.91659 11.75 5.66659 11.75 5.24992V3.33325C11.75 2.91659 12.0833 2.58325 12.5 2.58325C12.9167 2.58325 13.25 2.91659 13.25 3.33325V4.33325V4.33325Z" fill="#EFC319"/>
<path d="M8.33345 17.0831C8.33345 17.2498 8.25012 17.4998 8.08345 17.6664L6.91679 18.8331C6.91679 18.8331 5.83345 19.1664 5.66679 18.6664C5.50012 18.4164 5.58345 17.9998 5.83345 17.8331L7.16679 16.4998C7.41679 16.2498 7.66679 16.2498 8.00012 16.4164C8.25012 16.4998 8.33345 16.7498 8.33345 17.0831V17.0831Z" fill="#EFC319"/>
<path d="M13.25 19.9167V20.8333C13.25 21.25 12.9167 21.5833 12.5 21.5833C12.0833 21.5833 11.75 21.25 11.75 20.8333V19C11.75 18.5833 12.0833 18.25 12.5 18.25C12.9167 18.25 13.25 18.5833 13.25 19V19.9167V19.9167Z" fill="#EFC319"/>
<path d="M16.6667 7.25C16.6667 7.08333 16.7501 6.83333 16.8334 6.75L18.0834 5.5C18.4159 5.16667 18.9167 5.16667 19.1667 5.5C19.5001 5.83333 19.5001 6.33333 19.1667 6.58333C18.7501 7 18.3334 7.41667 17.9167 7.75C17.6667 8 17.3334 8.08333 17.0834 7.91667C16.8334 7.83333 16.6667 7.58333 16.6667 7.25V7.25Z" fill="#EFC319"/>
<path d="M19.4166 18.4165C19.4166 18.6665 19.2499 18.8332 18.9999 18.9998C18.6674 19.1665 18.4166 19.0832 18.1666 18.8332L16.8333 17.4998C16.5833 17.2498 16.5833 16.7498 16.8333 16.4165C17.0833 16.1665 17.5824 16.1665 17.8333 16.4165L19.0833 17.6665C19.3333 17.9165 19.4166 18.0832 19.4166 18.4165V18.4165Z" fill="#EFC319"/>
</svg>
