<svg width="80" height="60" viewBox="5 0 80 60">
  <path
    className="wave"
    fill="none"
    stroke="#fff"
    stroke-width="4"
    stroke-linecap="round"
    d="M 0 37.5 c 7.684299348848887 0 7.172012725592294 -15 15 -15 s 7.172012725592294 15 15 15 s 7.172012725592294 -15 15 -15 s 7.172012725592294 15 15 15 s 7.172012725592294 -15 15 -15 s 7.172012725592294 15 15 15 s 7.172012725592294 -15 15 -15 s 7.172012725592294 15 15 15 s 7.172012725592294 -15 15 -15 s 7.172012725592294 15 15 15 s 7.172012725592294 -15 15 -15 s 7.172012725592294 15 15 15 s 7.172012725592294 -15 15 -15 s 7.172012725592294 15 15 15 s 7.172012725592294 -15 15 -15"
  />
</svg>
